<?xml version="1.0" encoding="utf-8"?>
<!-- Generator: Adobe Illustrator 28.0.0, SVG Export Plug-In . SVG Version: 6.00 Build 0)  -->
<svg version="1.1" id="Layer_1" xmlns="http://www.w3.org/2000/svg" xmlns:xlink="http://www.w3.org/1999/xlink" x="0px" y="0px"
	 viewBox="0 0 1440 489.33" style="enable-background:new 0 0 1440 489.33;" xml:space="preserve">
<style type="text/css">
	.st0{fill:#FFFFFF;}
	.st1{fill:#B53242;}
	.st2{fill:#0E1F3D;}
</style>
<g>
	<path class="st0" d="M128.42,269.95l17.86,0.05l-0.27,97.25l39.71,0.11l-0.04,15.18l-57.58-0.16L128.42,269.95z"/>
	<path class="st0" d="M252.61,270.25l10.56,112.3l-17.06,0.12l-2.36-29.09l-23.44-0.03l-3.86,29.09l-16.27-0.16l13.36-112.27
		L252.61,270.25z M241.53,338.82l-4.09-54.25l-9.09-0.01l-5.96,54.38L241.53,338.82z"/>
	<path class="st0" d="M294.96,269.96l0.1,96.97l21.37-0.02l-0.1-96.97l17.86-0.02l0.11,103.71l-9.4,8.72l-35.89,0.04l-10.53-8.7
		l-0.11-103.72L294.96,269.96z"/>
	<path class="st0" d="M390.09,382.55l-8.57-49.34l-11.8-0.01l-0.04,49.33l-17.22-0.02l0.1-112.43l47.53,0.04l9.56,8.16l-0.2,45.81
		l-10.22,9.13l8.73,49.34L390.09,382.55z M370.21,318.03l22.33,0.02l0.03-32.46l-22.33-0.02L370.21,318.03z"/>
	<path class="st0" d="M483.94,270.13l-0.02,14.76l-38.75-0.04l-0.03,33.17l22.33,0.02l-0.02,15.18l-22.33-0.02l-0.03,34.15
		l38.91,0.04l-0.02,15.18l-56.46-0.06l0.11-112.29L483.94,270.13z"/>
	<path class="st0" d="M558.53,269.36l0.17,112.43l-16.75,0.02l-21.94-62.64l0.1,62.68l-17.7,0.03l-0.17-112.43l17.7-0.03
		l21.94,59.55l-0.09-59.59L558.53,269.36z"/>
</g>
<g>
	<path class="st0" d="M207.13,205.83l-25.42-45.14l-11.51,4.07l17.02,48.11l-16.8,5.94l-38.8-109.66l46.35-16.4l12.15,4.65
		l15.65,44.74l-6.8,12.43l25.58,45.08L207.13,205.83z M165.42,149.79l21.78-7.71L176,110.43l-21.78,7.71L165.42,149.79z"/>
	<path class="st0" d="M276.85,71.3l27.77,113.34l-17.45,2.7l-6.81-29.42l-24,3.51l0.44,30.35l-16.67,2.3l-3.29-116.93L276.85,71.3z
		 M275.87,143.16l-12.38-54.91l-9.31,1.36l2.11,56.56L275.87,143.16z"/>
	<path class="st0" d="M320.26,68.02l18.48-0.08l0.46,100.61l41.08-0.19l0.07,15.7l-59.57,0.27L320.26,68.02z"/>
	<path class="st0" d="M415.54,71.72l48.96,9.28l7.78,10.35l-8.94,47.14l-12.08,6.59l-29.43-5.58l-9.8,49.94l-18.16-3.44
		L415.54,71.72z M446.4,128.63l6.36-33.57l-21.72-4.12l-6.36,33.57L446.4,128.63z"/>
	<path class="st0" d="M499.46,88.75l17.49,5.98L501.1,141.1l22.01,7.53l15.85-46.37l16.24,5.55l-37.62,110.07l-16.86-5.76
		l16.6-48.57l-21.39-7.31l-16.6,48.57l-17.49-5.98L499.46,88.75z"/>
</g>
<g>
	<g>
		<g>
			<path class="st0" d="M1305.03,60.67L1305.03,60.67l-409.79,0.01c-10.95,0-21.27,4.19-29.05,11.8
				c-7.74,7.71-11.95,18.07-11.95,29.25V284.6c0,11.19,4.22,21.53,11.9,29.12c7.79,7.75,18.14,12.03,29.11,12.03l409.79,0.01
				c22.56,0,40.92-18.47,40.92-41.18V101.71c0-11.12-4.26-21.48-11.99-29.16C1326.21,64.87,1315.95,60.67,1305.03,60.67
				L1305.03,60.67z"/>
			<g>
				<g>
					<path class="st1" d="M1331.55,101.71c0-7.09-2.69-13.93-7.74-18.95c-5.06-5-11.79-7.69-18.78-7.69h-114.55l65.71,109.81
						l6.07,0.77l3.66,5.01v4.69l4.15,0.86l3.78,5.22v4.51l4.31,0.76l4.32,4.72v10.34c0,0,9.28,8.51,17.5,11.74
						c5.81,2.24,6.43,11.45,9.93,16.45c4.36,7.21,10.37,10.09,9.09,14.14c-2.93,10.8-13.98,28.97-24.26,29.84h-40.68v17.44h50.96
						c14.68,0,26.52-11.99,26.52-26.78V101.71"/>
					<path class="st2" d="M1051.36,294.1h-19.72c-0.18-49.19,16.61-76.42,36.56-81.82c2.73-0.5,1.42-13.94-2.04-18.03
						c0,0-9.67,0.15-11.7-0.13c-2.53-0.69-0.77-3.47-0.77-3.47l9.33-19.94l-1.27-5.45h-34.28l28.33-19.79
						c1.32-52.25,54.88-56.32,87.18-34.71c19.17,12.71,20.67,37.87,19.17,55.28c-0.25,1.13-4.98,0.38-4.98,0.38
						s-3.26,19.07,5.26,19.07h37.68c15.37-0.61,30.17,9.78,30.17,9.78l3.63-13.17l-82.53-107.02H895.24
						c-7.09,0-13.87,2.69-18.98,7.7c-5.02,5-7.62,11.87-7.62,18.95V284.6c0,7.16,2.6,13.91,7.62,18.88
						c5.11,5.08,11.89,7.87,18.98,7.87h166.26C1057.44,304.35,1052.78,296.41,1051.36,294.1"/>
				</g>
			</g>
			<path class="st0" d="M905.51,255.29c0-9.94,7.97-18.09,18.05-18.22c10.16,0,18.36,8.19,18.36,18.22
				c0,10.07-8.2,18.21-18.36,18.21C913.49,273.57,905.51,265.36,905.51,255.29"/>
		</g>
	</g>
	<g>
		<path class="st0" d="M1342.43,328.14c0-2.05-1.23-2.35-2.98-2.35h-3.75v7.65h1.63v-3.04h1.31l1.77,3.04h1.81l-1.83-3.04
			C1341.69,330.31,1342.43,329.56,1342.43,328.14 M1339.47,329.02h-2.15v-1.87h1.78c0.77,0,1.72,0,1.72,0.85
			C1340.83,328.82,1340.38,329.02,1339.47,329.02"/>
		<path class="st0" d="M1338.79,322.26c-4.08,0-7.32,3.27-7.32,7.42c0,4.05,3.24,7.35,7.32,7.35c4.1,0,7.37-3.31,7.37-7.35
			C1346.16,325.53,1342.89,322.26,1338.79,322.26 M1338.79,335.43c-3.13,0-5.68-2.47-5.68-5.74c0-3.33,2.56-5.8,5.68-5.8
			c3.16,0,5.77,2.47,5.77,5.8C1344.56,332.95,1341.95,335.43,1338.79,335.43"/>
	</g>
</g>
<rect x="534.69" y="233.87" transform="matrix(6.123234e-17 -1 1 6.123234e-17 473.2518 946.3074)" class="st0" width="350.18" height="5.31"/>
<g>
	<g>
		<path class="st0" d="M972.42,374.36v15.45c0,4.65-2.74,7.47-7.22,7.47c-4.47,0-7.22-2.83-7.22-7.47v-15.45
			c0-4.64,2.74-7.47,7.22-7.47C969.68,366.9,972.42,369.72,972.42,374.36z M962.46,374.41v15.36c0,2.2,0.97,3.38,2.74,3.38
			c1.78,0,2.75-1.18,2.75-3.38v-15.36c0-2.2-0.97-3.38-2.75-3.38C963.43,371.03,962.46,372.21,962.46,374.41z"/>
	</g>
	<g>
		<path class="st0" d="M981.24,371.45v8.36h6.33l-0.42,4.14h-5.91v12.92h-4.48v-29.55h12.37v4.14H981.24z"/>
	</g>
	<g>
		<path class="st0" d="M996.56,371.45v8.36h6.33l-0.42,4.14h-5.91v12.92h-4.48v-29.55h12.37v4.14H996.56z"/>
	</g>
	<g>
		<path class="st0" d="M1007.4,396.87v-29.13l4.48-0.42v29.55H1007.4z"/>
	</g>
	<g>
		<path class="st0" d="M1030.06,373.98v1.82l-4.3,1.05v-2.4c0-2.36-0.89-3.42-2.54-3.42c-1.64,0-2.53,1.06-2.53,3v16.12
			c0,1.94,0.89,3,2.53,3c1.65,0,2.54-1.06,2.54-3.42v-3.29l4.3,0.63v3.12c0,4.48-2.58,7.09-6.97,7.09c-4.35,0-6.88-2.61-6.88-7.09
			v-16.21c0-4.47,2.53-7.09,6.88-7.09C1027.49,366.9,1030.06,369.51,1030.06,373.98z"/>
	</g>
	<g>
		<path class="st0" d="M1033.86,396.87v-29.13l4.48-0.42v29.55H1033.86z"/>
	</g>
	<g>
		<path class="st0" d="M1052.89,396.87l-0.97-6.71h-4.94l-0.97,6.71h-4.47l5.11-29.55h5.7l5.11,29.55H1052.89z M1047.57,386.1h3.76
			l-1.81-13.3h-0.13L1047.57,386.1z"/>
	</g>
	<g>
		<path class="st0" d="M1072.6,392.64v4.22h-11.95v-29.55h4.48v25.33H1072.6z"/>
	</g>
	<g>
		<path class="st0" d="M1087.41,392.64v4.22h-11.95v-29.55h4.48v25.33H1087.41z"/>
	</g>
	<g>
		<path class="st0" d="M1095.56,396.87h-4.47v-13.38l-6.2-16.17h4.73l3.76,10.89h0.08l3.59-10.89h4.64l-6.12,16.21V396.87z"/>
	</g>
	<g>
		<path class="st0" d="M1122.74,392.64v4.22h-11.95v-29.55h4.48v25.33H1122.74z"/>
	</g>
	<g>
		<path class="st0" d="M1125.6,396.87v-29.13l4.48-0.42v29.55H1125.6z"/>
	</g>
	<g>
		<path class="st0" d="M1148.27,373.98v1.82l-4.3,1.05v-2.4c0-2.36-0.89-3.42-2.54-3.42c-1.64,0-2.53,1.06-2.53,3v16.12
			c0,1.94,0.89,3,2.53,3c1.65,0,2.54-1.06,2.54-3.42v-3.29l4.3,0.63v3.12c0,4.48-2.58,7.09-6.96,7.09c-4.35,0-6.88-2.61-6.88-7.09
			v-16.21c0-4.47,2.53-7.09,6.88-7.09C1145.69,366.9,1148.27,369.51,1148.27,373.98z"/>
	</g>
	<g>
		<path class="st0" d="M1156.54,371.45v8.36h6.54l-0.43,4.14h-6.12v8.78h8.11v4.14h-12.58v-29.55h12.58v4.14H1156.54z"/>
	</g>
	<g>
		<path class="st0" d="M1178.61,396.87l-5.87-19.59h-0.09v19.59h-4.22v-29.55h4.98l5.28,17.6h0.08v-17.6h4.22v29.55H1178.61z"/>
	</g>
	<g>
		<path class="st0" d="M1199.8,373.65v0.42l-4.31,0.84v-0.93c0-2.02-0.76-2.95-2.32-2.95c-1.31,0-2.23,0.72-2.23,2.41v0.63
			c0,1.64,0.84,2.99,3.75,5.66c3.97,3.67,5.32,6.08,5.32,9.5v1.44c0,4.35-2.75,6.63-6.84,6.63c-4.14,0-6.92-2.4-6.92-6.75v-1.52
			l4.31-0.84v2.02c0,1.99,0.93,2.96,2.53,2.96c1.35,0,2.45-0.72,2.45-2.83v-0.93c0-1.85-0.85-3.21-3.76-5.87
			c-3.97-3.67-5.32-6.08-5.32-9.29v-0.72c0-4.35,2.54-6.63,6.67-6.63S1199.8,369.3,1199.8,373.65z"/>
	</g>
	<g>
		<path class="st0" d="M1207.35,371.45v8.36h6.54l-0.43,4.14h-6.12v8.78h8.11v4.14h-12.58v-29.55h12.58v4.14H1207.35z"/>
	</g>
	<g>
		<path class="st0" d="M1225.67,367.32c4.81,0,7.43,2.61,7.43,7.47v14.6c0,4.85-2.61,7.47-7.43,7.47h-6.42v-29.55H1225.67z
			 M1223.73,392.73h1.77c2.15,0,3.12-1.14,3.12-3.63v-14.02c0-2.49-0.97-3.63-3.12-3.63h-1.77V392.73z"/>
	</g>
	<g>
		<path class="st0" d="M1017.54,439.07v-20.51h-0.09l-4.14,16.29h-1.82l-4.14-16.29h-0.09v20.51h-4.22v-29.55h5.87l3.5,15.87h0.08
			l3.46-15.87h6.04v29.55H1017.54z"/>
	</g>
	<g>
		<path class="st0" d="M1031.29,413.65v8.36h6.54l-0.43,4.14h-6.12v8.78h8.11v4.14h-12.58v-29.55h12.58v4.14H1031.29z"/>
	</g>
	<g>
		<path class="st0" d="M1049.31,426.57h-2.07v12.5h-4.47v-29.55h6.46c4.81,0,7.43,2.61,7.43,7.47v2.11c0,3.12-1.09,5.32-3.16,6.5
			l4.09,13.47h-4.73L1049.31,426.57z M1047.24,422.44h1.82c2.15,0,3.12-1.14,3.12-3.63v-1.52c0-2.49-0.97-3.63-3.12-3.63h-1.82
			V422.44z"/>
	</g>
	<g>
		<path class="st0" d="M1074.17,416.19V418l-4.31,1.05v-2.4c0-2.36-0.88-3.42-2.53-3.42c-1.64,0-2.53,1.06-2.53,3v16.12
			c0,1.94,0.89,3,2.53,3c1.65,0,2.53-1.06,2.53-3.42v-3.29l4.31,0.63v3.12c0,4.48-2.58,7.09-6.96,7.09c-4.35,0-6.88-2.61-6.88-7.09
			v-16.21c0-4.47,2.53-7.09,6.88-7.09C1071.59,409.1,1074.17,411.71,1074.17,416.19z"/>
	</g>
	<g>
		<path class="st0" d="M1087.75,439.07v-12.88h-5.32v12.88h-4.48v-29.55h4.48v12.45h5.32v-12.45h4.47v29.55H1087.75z"/>
	</g>
	<g>
		<path class="st0" d="M1106.79,439.07l-0.97-6.71h-4.94l-0.97,6.71h-4.47l5.11-29.55h5.7l5.11,29.55H1106.79z M1101.47,428.3h3.76
			l-1.81-13.3h-0.13L1101.47,428.3z"/>
	</g>
	<g>
		<path class="st0" d="M1124.73,439.07l-5.87-19.59h-0.09v19.59h-4.22v-29.55h4.98l5.28,17.6h0.08v-17.6h4.22v29.55H1124.73z"/>
	</g>
	<g>
		<path class="st0" d="M1140.34,409.52c4.81,0,7.43,2.61,7.43,7.47v14.6c0,4.85-2.61,7.47-7.43,7.47h-6.42v-29.55H1140.34z
			 M1138.4,434.93h1.77c2.15,0,3.12-1.14,3.12-3.63v-14.02c0-2.49-0.97-3.63-3.12-3.63h-1.77V434.93z"/>
	</g>
	<g>
		<path class="st0" d="M1152.11,439.07v-29.13l4.48-0.42v29.55H1152.11z"/>
	</g>
	<g>
		<path class="st0" d="M1173.38,415.85v0.42l-4.31,0.84v-0.93c0-2.02-0.76-2.95-2.32-2.95c-1.31,0-2.23,0.72-2.23,2.41v0.63
			c0,1.64,0.84,2.99,3.76,5.66c3.97,3.67,5.32,6.08,5.32,9.5v1.44c0,4.35-2.75,6.63-6.84,6.63c-4.14,0-6.92-2.4-6.92-6.75v-1.52
			l4.31-0.84v2.02c0,1.99,0.93,2.96,2.53,2.96c1.35,0,2.45-0.72,2.45-2.83v-0.93c0-1.85-0.84-3.21-3.76-5.87
			c-3.97-3.67-5.32-6.08-5.32-9.29v-0.72c0-4.35,2.54-6.63,6.67-6.63S1173.38,411.5,1173.38,415.85z"/>
	</g>
	<g>
		<path class="st0" d="M1180.93,413.65v8.36h6.54l-0.43,4.14h-6.12v8.78h8.11v4.14h-12.58v-29.55h12.58v4.14H1180.93z"/>
	</g>
</g>
<g>
	<path class="st0" d="M1044.97,339.55v0.86h-1.66v4.32h-1.03v-4.32h-1.66v-0.86H1044.97z M1050.57,344.73l-0.19-3.05
		c-0.02-0.4-0.02-0.89-0.04-1.45h-0.06c-0.13,0.46-0.29,1.07-0.44,1.54l-0.93,2.88h-1.07l-0.93-2.95c-0.09-0.4-0.25-1.01-0.36-1.47
		h-0.06c0,0.48-0.02,0.97-0.04,1.45l-0.19,3.05h-0.99l0.38-5.18h1.54l0.9,2.53c0.11,0.4,0.21,0.78,0.34,1.31h0.02
		c0.13-0.48,0.25-0.91,0.36-1.29l0.9-2.55h1.49l0.4,5.18H1050.57z"/>
	<path class="st0" d="M1051.83,353.15l5.31-13.81h1.29l-5.33,13.81H1051.83z"/>
	<path class="st0" d="M1070.59,345.91c0,3.28-2.51,5.9-5.73,5.9c-3.24,0-5.79-2.63-5.79-5.9c0-3.24,2.55-5.86,5.79-5.86
		C1068.08,340.05,1070.59,342.68,1070.59,345.91z M1060.02,345.97c0,2.84,2.09,5.07,4.84,5.07c2.68,0,4.78-2.23,4.78-5.12
		c0-2.84-2.09-5.08-4.78-5.08C1062.12,340.83,1060.02,343.08,1060.02,345.97z M1067.18,343.74c-0.25-0.13-0.95-0.44-1.85-0.44
		c-1.79,0-2.67,1.14-2.67,2.67c0,1.49,0.93,2.69,2.69,2.69c0.76,0,1.49-0.21,1.92-0.49l0.23,0.72c-0.67,0.44-1.54,0.59-2.34,0.59
		c-2.21,0-3.48-1.52-3.48-3.45c0-2.17,1.71-3.54,3.64-3.54c0.99,0,1.85,0.29,2.09,0.51L1067.18,343.74z"/>
	<path class="st0" d="M1076.18,352.39v-1.03l1.31-1.28c3.16-3.01,4.59-4.61,4.61-6.48c0-1.26-0.61-2.42-2.46-2.42
		c-1.12,0-2.06,0.57-2.63,1.05l-0.53-1.18c0.86-0.72,2.08-1.26,3.5-1.26c2.67,0,3.79,1.83,3.79,3.6c0,2.29-1.66,4.13-4.27,6.65
		l-0.99,0.91V351h5.56v1.39H1076.18z"/>
	<path class="st0" d="M1094.18,346.07c0,4.21-1.56,6.53-4.3,6.53c-2.42,0-4.06-2.27-4.1-6.36c0-4.15,1.79-6.44,4.3-6.44
		C1092.7,339.8,1094.18,342.12,1094.18,346.07z M1087.46,346.26c0,3.22,0.99,5.05,2.51,5.05c1.71,0,2.53-2,2.53-5.16
		c0-3.05-0.78-5.05-2.51-5.05C1088.53,341.1,1087.46,342.89,1087.46,346.26z"/>
	<path class="st0" d="M1095.73,352.39v-1.03l1.31-1.28c3.16-3.01,4.59-4.61,4.61-6.48c0-1.26-0.61-2.42-2.46-2.42
		c-1.12,0-2.06,0.57-2.63,1.05l-0.53-1.18c0.86-0.72,2.08-1.26,3.5-1.26c2.67,0,3.79,1.83,3.79,3.6c0,2.29-1.66,4.13-4.27,6.65
		l-0.99,0.91V351h5.56v1.39H1095.73z"/>
	<path class="st0" d="M1110.68,352.39v-3.37h-5.75v-1.1l5.52-7.9h1.81v7.69h1.73v1.31h-1.73v3.37H1110.68z M1110.68,347.71v-4.13
		c0-0.65,0.02-1.29,0.06-1.94h-0.06c-0.38,0.72-0.69,1.26-1.03,1.83l-3.03,4.21v0.04H1110.68z"/>
	<path class="st0" d="M1130.72,346.75c-0.09-1.79-0.21-3.94-0.19-5.54h-0.06c-0.44,1.5-0.97,3.1-1.62,4.88l-2.27,6.23h-1.26
		l-2.08-6.11c-0.61-1.81-1.12-3.47-1.49-4.99h-0.04c-0.04,1.6-0.13,3.75-0.25,5.68l-0.34,5.5h-1.58l0.9-12.84h2.11l2.19,6.21
		c0.53,1.58,0.97,2.99,1.29,4.32h0.06c0.32-1.29,0.78-2.7,1.35-4.32l2.29-6.21h2.11l0.8,12.84h-1.62L1130.72,346.75z"/>
	<path class="st0" d="M1135.23,339.55h1.66V351h5.48v1.39h-7.14V339.55z"/>
	<path class="st0" d="M1144.22,339.73c0.72-0.15,1.87-0.27,3.03-0.27c1.66,0,2.72,0.29,3.52,0.93c0.67,0.49,1.07,1.26,1.07,2.27
		c0,1.24-0.82,2.32-2.17,2.82v0.04c1.22,0.31,2.65,1.31,2.65,3.22c0,1.1-0.44,1.94-1.09,2.57c-0.89,0.82-2.34,1.2-4.44,1.2
		c-1.14,0-2.02-0.08-2.57-0.15V339.73z M1145.88,344.98h1.5c1.75,0,2.78-0.91,2.78-2.15c0-1.5-1.14-2.09-2.82-2.09
		c-0.76,0-1.2,0.06-1.47,0.11V344.98z M1145.88,351.13c0.32,0.06,0.8,0.08,1.39,0.08c1.71,0,3.3-0.63,3.3-2.49
		c0-1.75-1.5-2.48-3.31-2.48h-1.37V351.13z"/>
</g>
</svg>
